<svg xmlns="http://www.w3.org/2000/svg" width="16" height="16" fill="#d0021b" viewBox="0 0 20 20">
  <!-- 后面的文件 -->
  <g transform="translate(3,1)">
    <path d="M4 0a2 2 0 0 0-2 2v12a2 2 0 0 0 2 2h8a2 2 0 0 0 2-2V2a2 2 0 0 0-2-2zm0 1h8a1 1 0 0 1 1 1v12a1 1 0 0 1-1 1H4a1 1 0 0 1-1-1V2a1 1 0 0 1 1-1"/>
  </g>
  <!-- 前面的文件 -->
  <g transform="translate(1,3)">
  <!--
    <path d="M12 0H4a2 2 0 0 0-2 2v12a2 2 0 0 0 2 2h8a2 2 0 0 0 2-2V2a2 2 0 0 0-2-2M6 5.883a.5.5 0 0 1 .757-.429l3.528 2.117a.5.5 0 0 1 0 .858l-3.528 2.117a.5.5 0 0 1-.757-.43V5.884z"/>
	
	<path d="M12 0H4a2 2 0 0 0-2 2v12a2 2 0 0 0 2 2h8a2 2 0 0 0 2-2V2a2 2 0 0 0-2-2"/>
	-->
	<path d="M12 0H4a2 2 0 0 0-2 2v12a2 2 0 0 0 2 2h8a2 2 0 0 0 2-2V2a2 2 0 0 0-2-2m-.5 4.11v1.8l-2.5.5v5.09c0 .495-.301.883-.662 1.123C7.974 12.866 7.499 13 7 13s-.974-.134-1.338-.377C5.302 12.383 5 11.995 5 11.5s.301-.883.662-1.123C6.026 10.134 6.501 10 7 10c.356 0 .7.068 1 .196V4.41a1 1 0 0 1 .804-.98l1.5-.3a1 1 0 0 1 1.196.98"/>
  </g>
</svg>